<svg viewBox="0 0 24 24" xmlns="http://www.w3.org/2000/svg"><path d="m16 12c0-1.11-.45-2.11-1.17-2.83l1.41-1.41c1.09 1.09 1.76 2.59 1.76 4.24-.72 0-1.4.13-2.04.36.01-.12.04-.24.04-.36m4 .34c.68.25 1.33.62 1.88 1.09.07-.47.12-.93.12-1.43 0-2.76-1.12-5.26-2.93-7.07l-1.41 1.41c1.45 1.44 2.34 3.45 2.34 5.66zm-8-2.34c-1.1 0-2 .9-2 2s.9 2 2 2 2-.9 2-2-.9-2-2-2m-4.24-2.24c-1.09 1.09-1.76 2.59-1.76 4.24s.67 3.15 1.76 4.24l1.41-1.41c-.72-.72-1.17-1.72-1.17-2.83s.45-2.11 1.17-2.83zm-1.42-1.42-1.41-1.41c-1.81 1.81-2.93 4.31-2.93 7.07s1.12 5.26 2.93 7.07l1.41-1.41c-1.45-1.44-2.34-3.44-2.34-5.66 0-2.21.89-4.22 2.34-5.66m7.66 12.66h8v-2h-8z"/></svg>